<mxfile host="Electron" agent="Mozilla/5.0 (Windows NT 10.0; Win64; x64) AppleWebKit/537.36 (KHTML, like Gecko) draw.io/24.7.17 Chrome/128.0.6613.36 Electron/32.0.1 Safari/537.36" version="24.7.17">
  <diagram name="Seite-1" id="wWd1Cp0578Us6A5AVgAs">
    <mxGraphModel dx="794" dy="557" grid="1" gridSize="10" guides="1" tooltips="1" connect="1" arrows="1" fold="1" page="1" pageScale="1" pageWidth="827" pageHeight="1169" math="0" shadow="0">
      <root>
        <mxCell id="0" />
        <mxCell id="1" parent="0" />
        <mxCell id="Mf00HP_BYAakIvplPf2A-29" value="&lt;b&gt;&lt;font color=&quot;#cc0066&quot; style=&quot;font-size: 20px;&quot;&gt;ISE AG&lt;/font&gt;&lt;/b&gt;" style="ellipse;whiteSpace=wrap;html=1;labelPosition=center;verticalLabelPosition=top;align=center;verticalAlign=bottom;" vertex="1" parent="1">
          <mxGeometry x="70" y="110" width="670" height="330" as="geometry" />
        </mxCell>
        <mxCell id="Mf00HP_BYAakIvplPf2A-3" value="&lt;b&gt;&lt;font color=&quot;#99ffff&quot; style=&quot;font-size: 15px;&quot;&gt;Mitarbeiter&lt;/font&gt;&lt;/b&gt;" style="ellipse;whiteSpace=wrap;html=1;labelPosition=center;verticalLabelPosition=middle;align=center;verticalAlign=middle;fillColor=#fa6800;fontColor=#000000;strokeColor=#C73500;" vertex="1" parent="1">
          <mxGeometry x="525" y="223.28" width="135" height="143.43" as="geometry" />
        </mxCell>
        <mxCell id="Mf00HP_BYAakIvplPf2A-7" value="&lt;b&gt;&lt;font color=&quot;#99ffff&quot; style=&quot;font-size: 15px;&quot;&gt;Geschäftsleitung (GL)&lt;/font&gt;&lt;/b&gt;" style="ellipse;whiteSpace=wrap;html=1;labelPosition=center;verticalLabelPosition=top;align=center;verticalAlign=bottom;fillColor=#fa6800;strokeColor=#C73500;fontColor=#000000;" vertex="1" parent="1">
          <mxGeometry x="110" y="200" width="280" height="190" as="geometry" />
        </mxCell>
        <mxCell id="Mf00HP_BYAakIvplPf2A-15" value="&lt;b&gt;&lt;font color=&quot;#99ffff&quot; style=&quot;font-size: 20px;&quot;&gt;Pot. neuer Mitarbeiter&lt;/font&gt;&lt;/b&gt;" style="ellipse;whiteSpace=wrap;html=1;labelPosition=center;verticalLabelPosition=bottom;align=center;verticalAlign=top;fillColor=#fa6800;fontColor=#000000;strokeColor=#C73500;" vertex="1" parent="1">
          <mxGeometry x="355" y="445" width="210" height="70" as="geometry" />
        </mxCell>
        <mxCell id="Mf00HP_BYAakIvplPf2A-19" value="" style="endArrow=none;startArrow=classic;html=1;rounded=0;entryX=1;entryY=0.5;entryDx=0;entryDy=0;exitX=0;exitY=0.5;exitDx=0;exitDy=0;curved=0;strokeWidth=5;fillColor=#e1d5e7;strokeColor=#9673a6;endFill=0;" edge="1" parent="1" source="Mf00HP_BYAakIvplPf2A-3" target="Mf00HP_BYAakIvplPf2A-7">
          <mxGeometry width="50" height="50" relative="1" as="geometry">
            <mxPoint x="365" y="480" as="sourcePoint" />
            <mxPoint x="415" y="430" as="targetPoint" />
          </mxGeometry>
        </mxCell>
        <mxCell id="Mf00HP_BYAakIvplPf2A-20" value="&lt;font style=&quot;font-size: 14px;&quot;&gt;Auftrag&lt;/font&gt;" style="edgeLabel;html=1;align=center;verticalAlign=middle;resizable=0;points=[];" vertex="1" connectable="0" parent="Mf00HP_BYAakIvplPf2A-19">
          <mxGeometry x="-0.2175" y="1" relative="1" as="geometry">
            <mxPoint x="-21" y="-16" as="offset" />
          </mxGeometry>
        </mxCell>
        <mxCell id="Mf00HP_BYAakIvplPf2A-22" value="" style="endArrow=none;startArrow=classic;html=1;rounded=0;entryX=0.5;entryY=1;entryDx=0;entryDy=0;exitX=0.5;exitY=0;exitDx=0;exitDy=0;curved=0;strokeWidth=5;fillColor=#e1d5e7;strokeColor=#9673a6;endFill=0;" edge="1" parent="1" source="Mf00HP_BYAakIvplPf2A-15" target="Mf00HP_BYAakIvplPf2A-21">
          <mxGeometry width="50" height="50" relative="1" as="geometry">
            <mxPoint x="625" y="480" as="sourcePoint" />
            <mxPoint x="450" y="480" as="targetPoint" />
          </mxGeometry>
        </mxCell>
        <mxCell id="Mf00HP_BYAakIvplPf2A-23" value="&lt;font style=&quot;font-size: 14px;&quot;&gt;Onboarding&lt;/font&gt;" style="edgeLabel;html=1;align=center;verticalAlign=middle;resizable=0;points=[];" vertex="1" connectable="0" parent="Mf00HP_BYAakIvplPf2A-22">
          <mxGeometry x="-0.2175" y="1" relative="1" as="geometry">
            <mxPoint x="51" y="-7" as="offset" />
          </mxGeometry>
        </mxCell>
        <mxCell id="Mf00HP_BYAakIvplPf2A-24" value="" style="endArrow=classic;startArrow=classic;html=1;rounded=0;entryX=0.5;entryY=1;entryDx=0;entryDy=0;exitX=0;exitY=0.5;exitDx=0;exitDy=0;fillColor=#e1d5e7;strokeColor=#9673a6;strokeWidth=5;" edge="1" parent="1" source="Mf00HP_BYAakIvplPf2A-15" target="Mf00HP_BYAakIvplPf2A-7">
          <mxGeometry width="50" height="50" relative="1" as="geometry">
            <mxPoint x="380" y="490" as="sourcePoint" />
            <mxPoint x="430" y="440" as="targetPoint" />
          </mxGeometry>
        </mxCell>
        <mxCell id="Mf00HP_BYAakIvplPf2A-25" value="&lt;font style=&quot;font-size: 13px;&quot;&gt;Bewerbung&lt;/font&gt;" style="edgeLabel;html=1;align=center;verticalAlign=middle;resizable=0;points=[];" vertex="1" connectable="0" parent="Mf00HP_BYAakIvplPf2A-24">
          <mxGeometry x="-0.2866" y="-1" relative="1" as="geometry">
            <mxPoint x="-56" y="-2" as="offset" />
          </mxGeometry>
        </mxCell>
        <mxCell id="Mf00HP_BYAakIvplPf2A-27" value="" style="group;fillColor=none;fontColor=#000000;strokeColor=none;" vertex="1" connectable="0" parent="1">
          <mxGeometry x="332.5" y="190" width="247.5" height="75" as="geometry" />
        </mxCell>
        <mxCell id="Mf00HP_BYAakIvplPf2A-26" value="&lt;font style=&quot;font-size: 12px;&quot; color=&quot;#ffff66&quot;&gt;&lt;b&gt;Camunda Server&lt;/b&gt;&lt;/font&gt;&lt;div&gt;&lt;font style=&quot;font-size: 12px;&quot; color=&quot;#ffff66&quot;&gt;&lt;b&gt;(BPMN)&lt;/b&gt;&lt;/font&gt;&lt;/div&gt;" style="ellipse;whiteSpace=wrap;html=1;fillColor=none;labelPosition=center;verticalLabelPosition=top;align=center;verticalAlign=bottom;fontColor=#000000;strokeColor=#B09500;strokeWidth=2;" vertex="1" parent="Mf00HP_BYAakIvplPf2A-27">
          <mxGeometry width="247.5" height="75" as="geometry" />
        </mxCell>
        <mxCell id="Mf00HP_BYAakIvplPf2A-28" value="" style="group" vertex="1" connectable="0" parent="1">
          <mxGeometry x="315" y="340" width="290" height="80" as="geometry" />
        </mxCell>
        <mxCell id="Mf00HP_BYAakIvplPf2A-21" value="&lt;font color=&quot;#ff9999&quot;&gt;&lt;b&gt;Onboarding&lt;/b&gt;&lt;/font&gt;" style="ellipse;whiteSpace=wrap;html=1;fillColor=none;fontSize=15;labelPosition=center;verticalLabelPosition=top;align=center;verticalAlign=bottom;fontColor=#ffffff;strokeColor=#B20000;strokeWidth=2;" vertex="1" parent="Mf00HP_BYAakIvplPf2A-28">
          <mxGeometry width="290" height="60" as="geometry" />
        </mxCell>
        <mxCell id="Mf00HP_BYAakIvplPf2A-34" value="&lt;span style=&quot;font-family: Helvetica; font-size: 12px; font-style: normal; font-variant-ligatures: normal; font-variant-caps: normal; font-weight: 400; letter-spacing: normal; orphans: 2; text-align: center; text-indent: 0px; text-transform: none; widows: 2; word-spacing: 0px; -webkit-text-stroke-width: 0px; white-space: normal; text-decoration-thickness: initial; text-decoration-style: initial; text-decoration-color: initial; float: none; display: inline !important;&quot;&gt;Onboarding vorbereitung&lt;/span&gt;" style="ellipse;whiteSpace=wrap;html=1;fillColor=#f8cecc;strokeColor=#b85450;labelBackgroundColor=none;fontColor=#000000;" vertex="1" parent="Mf00HP_BYAakIvplPf2A-28">
          <mxGeometry x="65" y="10" width="160" height="40" as="geometry" />
        </mxCell>
        <mxCell id="Mf00HP_BYAakIvplPf2A-30" value="Persönliche Unterlagen" style="ellipse;whiteSpace=wrap;html=1;fillColor=#dae8fc;strokeColor=#6c8ebf;fontColor=#000000;" vertex="1" parent="1">
          <mxGeometry x="390" y="452.5" width="140" height="55" as="geometry" />
        </mxCell>
        <mxCell id="Mf00HP_BYAakIvplPf2A-31" value="Ablage Dokumente" style="ellipse;whiteSpace=wrap;html=1;fillColor=#f8cecc;strokeColor=#b85450;labelBackgroundColor=none;fontColor=#000000;" vertex="1" parent="1">
          <mxGeometry x="194" y="290" width="117" height="40" as="geometry" />
        </mxCell>
        <mxCell id="Mf00HP_BYAakIvplPf2A-32" value="Einstellung neuer Mitarbeiter" style="ellipse;whiteSpace=wrap;html=1;fillColor=#f8cecc;strokeColor=#b85450;labelBackgroundColor=none;fontColor=#000000;" vertex="1" parent="1">
          <mxGeometry x="172.5" y="223.28" width="160" height="53" as="geometry" />
        </mxCell>
        <mxCell id="Mf00HP_BYAakIvplPf2A-33" style="edgeStyle=orthogonalEdgeStyle;rounded=0;orthogonalLoop=1;jettySize=auto;html=1;exitX=0.5;exitY=1;exitDx=0;exitDy=0;" edge="1" parent="1" source="Mf00HP_BYAakIvplPf2A-31" target="Mf00HP_BYAakIvplPf2A-31">
          <mxGeometry relative="1" as="geometry" />
        </mxCell>
        <mxCell id="Mf00HP_BYAakIvplPf2A-35" value="Benutzererfassung" style="ellipse;whiteSpace=wrap;html=1;fillColor=#fff2cc;strokeColor=#d6b656;fontColor=#000000;" vertex="1" parent="1">
          <mxGeometry x="396" y="210" width="120" height="40" as="geometry" />
        </mxCell>
      </root>
    </mxGraphModel>
  </diagram>
</mxfile>
